<?xml version="1.0" encoding="UTF-8"?>
<svg id="Layer_2" data-name="Layer 2" xmlns="http://www.w3.org/2000/svg" viewBox="0 0 827.62 827.62">
  <defs>
    <style>
      .cls-1 {
        fill: #3600e2;
      }

      .cls-1, .cls-2 {
        stroke-width: 0px;
      }

      .cls-2 {
        fill: #fff;
      }
    </style>
  </defs>
  <g id="Calque_1" data-name="Calque 1">
    <g>
      <rect class="cls-1" width="827.62" height="827.62" rx="190.13" ry="190.13"/>
      <g>
        <path class="cls-2" d="M530.51,429.84h-233.41c-76.36,0-138.48-62.13-138.48-138.49v-117.69c0-8.85,7.18-16.03,16.03-16.03h238.15c8.85,0,16.03,7.18,16.03,16.03v117.69c0,57.58,46.81,105.31,104.36,106.4,8.66.16,15.62,7.17,15.73,15.83.11,8.66-6.68,15.83-15.33,16.21-1.01.04-2.04.05-3.07.05ZM190.68,189.69v101.66c0,58.69,47.74,106.43,106.42,106.43h149.95c-30.66-25.52-50.28-63.91-50.28-106.43v-101.66h-206.09Z"/>
        <path class="cls-2" d="M530.51,669.99h-233.41c-76.36,0-138.48-62.12-138.48-138.47v-56.26c0-8.85,7.18-16.03,16.03-16.03h296.92c8.85,0,16.03,7.18,16.03,16.03v56.26c0,4.63-.02,9.19-.05,13.68-.38,69.4,3.08,91.9,45.63,92.7,8.66.16,15.62,7.17,15.73,15.83.11,8.66-6.68,15.83-15.33,16.21-1.01.04-2.04.05-3.07.05ZM190.68,491.29v40.23c0,58.68,47.74,106.41,106.42,106.41h171.82c-1.89-3.21-3.55-6.65-4.99-10.33-8.76-22.36-8.61-50.26-8.43-82.57.02-4.44.05-8.95.05-13.51v-40.23H190.68Z"/>
        <path class="cls-2" d="M535.26,429.84h-122.46c-8.85,0-16.03-7.18-16.03-16.03s7.18-16.03,16.03-16.03h119.04c.25-.02.49-.03.74-.03,57.54-1.09,104.36-48.82,104.36-106.4,0-8.85,7.18-16.03,16.03-16.03s16.03,7.18,16.03,16.03c0,36.52-14.09,70.99-39.69,97.04-24.48,24.92-56.82,39.46-91.51,41.25-.83.13-1.67.2-2.53.2Z"/>
        <path class="cls-2" d="M532.88,669.96c-8.71,0-15.86-6.98-16.02-15.73-.17-8.85,6.87-16.16,15.72-16.33,57.54-1.09,104.36-48.81,104.36-106.38v-151.55c-2.42,2.89-4.96,5.7-7.63,8.42-25.56,26.02-59.7,40.73-96.13,41.42-.2,0-.4,0-.61,0-74.89-1.42-135.81-63.53-135.81-138.46v-117.69c0-8.85,7.18-16.03,16.03-16.03h240.17c8.85,0,16.03,7.18,16.03,16.03v357.86c0,36.52-14.09,70.98-39.69,97.03-25.56,26.01-59.7,40.72-96.12,41.41-.1,0-.21,0-.31,0ZM428.83,189.69v101.66c0,57.48,46.65,105.14,104.06,106.4,57.4-1.25,104.06-48.92,104.06-106.4v-101.66h-208.11Z"/>
      </g>
    </g>
  </g>
</svg>